<?xml version="1.0" standalone="no"?>
<!DOCTYPE svg PUBLIC "-//W3C//DTD SVG 20010904//EN"
 "http://www.w3.org/TR/2001/REC-SVG-20010904/DTD/svg10.dtd">
<svg version="1.0" xmlns="http://www.w3.org/2000/svg"
 width="1358.000000pt" height="1358.000000pt" viewBox="0 0 1358.000000 1358.000000"
 preserveAspectRatio="xMidYMid meet">
<metadata>
Created by potrace 1.14, written by Peter Selinger 2001-2017
</metadata>
<g transform="translate(0.000000,1358.000000) scale(0.100000,-0.100000)"
fill="#000000" stroke="none">
<path d="M2120 9235 l0 -725 1485 0 1485 0 0 -2205 0 -2205 -390 0 -390 0 0
1845 0 1845 -227 -2 -228 -3 -3 -2083 -2 -2082 847 2 848 3 0 2670 0 2670
-1482 3 -1483 2 0 270 0 270 2130 0 2130 0 0 -260 0 -260 235 0 235 0 0 485 0
485 -2595 0 -2595 0 0 -725z"/>
<path d="M9282 9738 l3 -223 574 -5 575 -5 -295 -300 c-162 -165 -614 -626
-1004 -1025 -391 -399 -737 -752 -770 -785 l-60 -60 229 -320 c211 -293 1041
-1453 1298 -1811 59 -83 108 -156 108 -163 0 -8 74 -11 270 -11 149 0 270 3
270 8 0 4 -119 176 -263 382 -860 1227 -1289 1843 -1293 1855 -5 11 1206 1279
2303 2411 139 144 253 265 253 268 0 3 -495 6 -1100 6 l-1100 0 2 -222z"/>
<path d="M6834 8468 c3 -18 8 -170 11 -338 13 -688 44 -2455 46 -2590 1 -80 4
-148 6 -153 5 -8 5 -8 437 366 302 261 321 276 337 260 9 -10 146 -198 306
-418 159 -220 543 -748 852 -1174 310 -426 565 -780 568 -788 4 -11 186 -13
1048 -13 942 0 1043 2 1049 16 3 9 6 114 6 235 l0 219 -930 0 -930 0 -20 22
c-10 13 -143 187 -295 388 -151 201 -442 586 -645 855 -203 270 -514 681 -691
915 -176 234 -326 426 -332 427 -7 2 -91 -62 -187 -140 l-175 -143 -3 1043 -2
1043 -230 0 -231 0 5 -32z"/>
</g>
</svg>
